# xmcd
#
# Track frame offsets:
#	150
#	15257
#	32467
#	46587
#	62492
#	74070
#	87797
#	104320
#	120415
#	134615
#	148255
#	164102
#	173997
#	185887
#	197110
#	210277
#	224417
#	239567
#	254584
#	265875
#	280122
#	304150
#	312345
#
# Disc length: 4364 seconds
#
# Revision: 0
# Processed by: cddbd v1.5.2PL0 Copyright (c) Steve Scherf et al.
# Submitted via: audiograbber 1.83.01
#
DISCID=5d110a17
DTITLE=Count Basie - Vol. 094 - Count Basie and his Orchestra 1944-1956
DYEAR=1996
DGENRE=Jazz
TTITLE0=What Am I Here For
TTITLE1=April in Paris
TTITLE2=Jive at Five
TTITLE3=There's a Small Hotel
TTITLE4=Hob Nail Boogie
TTITLE5=Blee Bop Blues
TTITLE6=Basie Talks
TTITLE7=Paradise Squat
TTITLE8=Softly, With Feeling
TTITLE9=Beaver Junction
TTITLE10=Nails
TTITLE11=Did You Ever See Jackie Robinson Hit That Ball
TTITLE12=Seventh Avenue Express
TTITLE13=Mr. Roberts' Roost
TTITLE14=The Mad Boogie
TTITLE15=The King
TTITLE16=Mutton Leg
TTITLE17=Patience And Fortitude
TTITLE18=Wild Bill's Boogie
TTITLE19=Stay Cool
TTITLE20=High Tide (I Ain't Mad at You)
TTITLE21=Jimmy's Boogie Woogie
TTITLE22=Taps Miller
EXTD=YEAR: 1996
EXTT0=
EXTT1=
EXTT2=
EXTT3=
EXTT4=
EXTT5=
EXTT6=
EXTT7=
EXTT8=
EXTT9=
EXTT10=
EXTT11=
EXTT12=
EXTT13=
EXTT14=
EXTT15=
EXTT16=
EXTT17=
EXTT18=
EXTT19=
EXTT20=
EXTT21=
EXTT22=
PLAYORDER=
